<svg width="253" height="251" viewBox="0 0 253 251" fill="none" xmlns="http://www.w3.org/2000/svg">
<g clip-path="url(#clip0_113_42)">
<rect x="0.308594" y="0.619629" width="252" height="250" rx="23" fill="#F5F5F7"/>
<path d="M126.308 35.4869C140.903 35.4869 154.901 41.285 165.222 51.6057C175.542 61.9263 181.34 75.9241 181.34 90.5197C181.34 105.115 175.542 119.113 165.222 129.434C154.901 139.754 140.903 145.552 126.308 145.552C111.712 145.552 97.7143 139.754 87.3937 129.434C77.073 119.113 71.275 105.115 71.275 90.5197C71.275 75.9241 77.073 61.9263 87.3937 51.6057C97.7143 41.285 111.712 35.4869 126.308 35.4869ZM126.308 173.069C187.119 173.069 236.373 197.696 236.373 228.102V255.618H16.2422V228.102C16.2422 197.696 65.4965 173.069 126.308 173.069Z" fill="black"/>
</g>
<defs>
<clipPath id="clip0_113_42">
<rect x="0.308594" y="0.619629" width="252" height="250" rx="23" fill="white"/>
</clipPath>
</defs>
</svg>
