<svg width="25" height="25" viewBox="0 0 25 25" fill="none" xmlns="http://www.w3.org/2000/svg">
<path d="M4.04199 17.9996V20.2926C4.04199 20.4252 4.09467 20.5524 4.18844 20.6461C4.28221 20.7399 4.40938 20.7926 4.54199 20.7926H6.83999C6.97234 20.7925 7.09929 20.74 7.19299 20.6466L16.641 11.1986L13.641 8.19857L4.18899 17.6466C4.09516 17.7401 4.04229 17.8671 4.04199 17.9996ZM14.879 6.95957L17.879 9.95957L19.339 8.49957C19.5265 8.31205 19.6318 8.05774 19.6318 7.79257C19.6318 7.52741 19.5265 7.2731 19.339 7.08557L17.754 5.49957C17.5665 5.3121 17.3122 5.20679 17.047 5.20679C16.7818 5.20679 16.5275 5.3121 16.34 5.49957L14.879 6.95957Z" fill="#B3AE60"/>
</svg>
